# 
# 
mtllib Mr_Handy_Box.mtl
o MrHandyBOX
v -0.797518 2.065903 0.756687
v 0.022710 2.085015 0.365964
v -0.797518 2.072853 0.352498
v 0.714553 2.071115 0.351846
v 0.714553 2.067640 -0.030162
v -0.116739 2.088490 -0.014402
v -0.797952 2.100653 -0.002216
v 0.710209 2.038102 -0.738443
v 0.711946 2.041577 -0.765809
v -0.800124 2.069378 -0.752343
v -0.019207 2.156253 -0.385728
v -0.800124 2.107603 -0.369222
v 0.711946 2.156253 -0.380081
v 0.711946 2.239654 -0.047184
v -0.115001 2.199691 -0.028045
v -0.800124 2.145828 -0.002925
v -0.797083 2.046790 -0.747565
v -0.796215 2.041578 0.750605
v 0.714553 2.045052 -0.027325
v -0.112395 2.067640 -0.011565
v -0.797952 2.079803 -0.003282
v -0.797518 2.052003 0.359665
v 0.026850 2.064165 0.356624
v 0.714553 2.050265 0.359014
v -0.119345 2.180578 -0.019615
v 0.711946 2.220541 -0.038741
v -0.800124 2.124978 0.001821
v -0.800124 2.086753 -0.369439
v -0.023347 2.138878 -0.373348
v 0.711946 2.138878 -0.367484
v 0.430686 2.027677 0.740180
v 0.436333 1.977289 -0.744524
v 0.167345 1.919951 -0.740180
v 0.135961 2.017252 0.735837
v -0.444586 2.027678 -0.735837
v -0.450450 1.977290 0.746696
v -0.164412 1.919951 0.744524
v -0.133028 2.017252 -0.731493
v 0.173752 1.899101 -0.740180
v 0.138350 1.996402 0.735402
v 0.441546 2.008564 0.740180
v 0.447410 1.958177 -0.744524
v -0.170819 1.899101 0.744524
v -0.135417 1.996402 -0.731058
v -0.455662 2.008565 -0.735837
v -0.461309 1.958177 0.746696
v 0.714553 2.045052 0.751474
v -0.800558 2.020727 -0.750171
v 0.714118 2.020727 0.753646
v -0.810984 2.020727 0.765374
v -0.810984 0.046886 0.765374
v -0.797953 0.046804 0.769718
v -0.798387 2.020727 0.769718
v 0.711946 0.046478 0.769718
v 0.711511 0.021542 0.771890
v -0.797518 0.020497 0.772324
v -0.797518 0.000327 0.756687
v 0.714986 0.003091 0.754515
v 0.714552 0.002978 -0.022058
v -0.797953 0.000065 -0.000445
v 0.711946 2.020727 0.769718
v 0.711512 2.045052 0.771890
v -0.797518 2.046790 0.772759
v 0.724543 2.020727 0.765374
v 0.724977 0.046478 0.765374
v 0.714553 2.064165 0.754515
v 0.728886 0.046478 0.752343
v 0.728887 2.020727 0.752777
v 0.728887 0.046886 -0.748434
v 0.729321 0.032714 -0.743221
v 0.729755 0.030026 0.751909
v 0.728887 2.020727 -0.748434
v 0.729322 2.034627 -0.743221
v 0.729756 2.036365 0.751909
v 0.714552 0.021556 0.751040
v 0.710208 0.028099 -0.738443
v 0.724543 2.020727 -0.761030
v 0.724977 0.046886 -0.761030
v 0.711946 0.046886 -0.765374
v 0.711946 2.020727 -0.765374
v -0.797953 0.046886 -0.765374
v 0.712380 0.026049 -0.766243
v -0.797952 2.020727 -0.765374
v -0.800124 2.048527 -0.767112
v -0.810983 2.020727 -0.761031
v 0.711946 2.057215 -0.748868
v -0.810984 0.046886 -0.761031
v -0.800125 0.018000 -0.767112
v -0.800125 -0.001704 -0.752343
v 0.712380 0.009787 -0.748868
v -0.815328 0.046886 -0.748434
v -0.815327 2.020727 -0.748434
v 0.714118 0.003063 -0.027529
v -0.802296 0.000111 -0.004788
v -0.815328 0.046804 0.752343
v -0.815328 0.033122 0.751909
v -0.815762 0.030434 -0.747999
v -0.796650 0.019330 -0.747565
v -0.796215 0.024570 0.750171
v -0.815327 2.020727 0.752343
v -0.815762 2.032890 0.751909
v -0.815762 2.036365 -0.747999
v -0.799690 2.022465 0.754080
v 0.713250 2.020727 -0.752343
v -0.795781 0.064777 -0.738877
v 0.702824 0.064776 -0.746262
v 0.713683 0.066514 0.747565
v -0.794043 0.064831 0.748868
v -0.799690 0.045121 0.754080
v -0.800559 0.046397 -0.750171
v 0.713249 0.045257 -0.752343
v 0.714118 0.045392 0.753646
v 0.714552 0.023972 -0.022954
v -0.797953 0.021448 -0.001510
v 0.712815 0.024488 -0.027040
v -0.804034 0.021529 -0.003764
vt 0.242188 0.891113
vt 0.007706 0.891113
vt 0.007706 0.797852
vt 0.476563 0.891113
vt 0.476563 0.998182
vt 0.198975 0.998182
vt 0.007706 0.998182
vt 0.476563 0.797852
vt 0.285400 0.998182
vt 0.972656 0.599121
vt 0.983398 0.599121
vt 0.983398 0.282227
vt 0.972656 0.279297
vt 0.983398 0.064941
vt 0.972656 0.064941
vt 0.983398 0.320313
vt 0.983398 0.218750
vt 0.972656 0.218750
vt 0.972656 0.323242
vt 0.983398 0.437988
vt 0.972656 0.433594
vt 0.488525 0.891113
vt 0.953125 0.891113
vt 0.953125 0.998182
vt 0.488525 0.998182
vt 0.488525 0.797852
vt 0.953125 0.797852
vt 0.001075 0.784180
vt 0.001075 0.212891
vt 0.007706 0.212891
vt 0.007706 0.784180
vt 0.476563 0.212891
vt 0.476563 0.206055
vt 0.007706 0.206055
vt 0.007706 0.199707
vt 0.476563 0.199707
vt 0.476563 0.002930
vt 0.007706 0.002930
vt 0.476563 0.784180
vt 0.476563 0.791138
vt 0.007706 0.791138
vt 0.482910 0.784180
vt 0.482910 0.212891
vt 0.488525 0.212891
vt 0.488525 0.784180
vt 0.953125 0.212891
vt 0.953125 0.206055
vt 0.488525 0.206055
vt 0.953125 0.784180
vt 0.953125 0.791138
vt 0.488525 0.791138
vt 0.488525 0.199707
vt 0.953125 0.199707
vt 0.959473 0.784180
vt 0.959473 0.212891
vt 0.972656 0.455566
vt 0.975098 0.451172
vt 0.979492 0.455566
vt 0.975586 0.459961
vt 0.480713 0.001953
vt 0.808105 0.001953
vt 0.808105 0.188477
vt 0.808105 0.197754
vt 0.983398 0.447266
vt 0.977539 0.447266
vt 0.972656 0.439453
vt 0.480713 0.197754
vt 0.480713 0.188477
vn 0.005300 0.999700 0.022700
vn -0.003300 0.999300 0.037700
vn -0.005100 0.900800 0.434300
vn 0.020200 0.999800 0.003900
vn 0.021600 0.999700 -0.006200
vn 0.006000 0.999800 0.018500
vn 0.019200 0.996800 0.078100
vn -0.026100 0.981500 -0.189800
vn -0.021800 0.853900 -0.520000
vn -0.070300 0.991800 -0.106500
vn -0.013400 0.977200 -0.211700
vn 0.001900 0.967900 -0.251200
vn -0.061600 0.989500 -0.130500
vn -0.081700 0.991300 -0.103400
vn -0.022300 -0.124800 -0.991900
vn -0.022300 -0.124600 -0.992000
vn -0.018900 -0.138500 -0.990200
vn -0.017800 -0.136600 -0.990500
vn -0.016900 0.047400 -0.998700
vn -0.017000 0.051000 -0.998600
vn -1.000000 0.000200 0.000800
vn -1.000000 -0.000100 0.001200
vn -1.000000 -0.000000 0.001200
vn -1.000000 -0.000900 0.000500
vn -0.998700 -0.047500 -0.019200
vn -0.999800 -0.012900 -0.015600
vn 0.003300 -0.999100 -0.041900
vn -0.018600 -0.996900 -0.076300
vn -0.006800 -0.999800 -0.018300
vn -0.004800 -0.999700 -0.022700
vn 0.011100 -0.999400 -0.034000
vn -0.022500 -0.999700 0.009500
vn -0.020200 -0.999800 0.000100
vn 1.000000 0.000000 0.000000
vn -0.001800 0.403900 0.914800
vn 0.001600 0.404100 0.914700
vn -0.000500 0.401900 0.915700
vn 0.017900 0.225600 0.974000
vn 0.018300 0.221900 0.974900
vn -1.000000 0.000000 0.000000
vn -1.000000 -0.002500 0.000100
vn -0.991400 -0.118400 0.056100
vn -0.995200 -0.077700 0.058900
vn 0.063000 -0.989800 0.127700
vn 0.084200 -0.991200 0.102100
vn 0.073000 -0.991400 0.108700
vn 0.027400 -0.981300 0.190600
vn 0.013100 -0.977600 0.209900
vn 0.045700 -0.987800 0.148500
vn -0.003600 -0.965800 0.259300
vn -0.002000 -0.967800 0.251600
vn 1.000000 -0.003100 -0.002000
vn 1.000000 -0.001100 -0.001500
vn 0.997800 -0.057900 0.031900
vn -0.067200 0.997100 -0.034900
vn -0.212400 0.976600 -0.034000
vn -0.187700 0.981500 -0.038000
vn -0.034300 0.997200 -0.066500
vn 0.063000 0.997400 0.034800
vn 0.189800 0.981200 0.034100
vn 0.175500 0.983700 0.038400
vn 0.032400 0.997300 0.066400
vn -0.956400 -0.292100 -0.001100
vn -0.993400 -0.113500 -0.016400
vn -0.993200 -0.115300 -0.016200
vn -0.955900 -0.293700 -0.001000
vn 0.189900 -0.981100 0.038200
vn 0.220700 -0.974700 0.034000
vn 0.062600 -0.997500 0.032800
vn 0.038900 -0.997000 0.066700
vn -0.023500 -0.013700 0.999600
vn -0.013900 -0.022400 0.999700
vn -0.014000 -0.021900 0.999700
vn -0.030800 -0.014100 0.999400
vn -0.015100 -0.004800 -0.999900
vn -0.015200 -0.004700 -0.999900
vn -0.021300 0.004900 -0.999800
vn -0.021100 -0.012200 -0.999700
vn 0.956400 -0.292100 0.001100
vn 0.993400 -0.113500 0.016300
vn 0.993200 -0.115300 0.016200
vn 0.955900 -0.293700 0.001000
vn -0.177900 -0.983300 -0.038500
vn -0.193300 -0.980500 -0.034100
vn -0.057200 -0.997800 -0.032700
vn -0.036900 -0.997100 -0.066600
vn 0.020700 -0.012300 -0.999700
vn 0.013200 -0.022300 -0.999700
vn 0.013200 -0.021800 -0.999700
vn 0.026500 -0.012400 -0.999600
vn 0.007100 -0.002300 1.000000
vn 0.007200 -0.002200 1.000000
vn 0.012300 -0.003400 0.999900
vn 0.014500 -0.008300 0.999900
vn -0.316200 0.000000 0.948700
vn -0.106800 0.033100 0.993700
vn -0.106800 0.033000 0.993700
vn -0.110800 -0.038500 0.993100
vn -0.326000 -0.000100 0.945400
vn 0.107100 0.029100 0.993800
vn 0.001300 -0.342500 0.939500
vn 0.000500 -0.274800 0.961500
vn 0.001400 -0.898100 0.439800
vn 0.002300 -0.685300 0.728200
vn 0.001900 -1.000000 0.000200
vn 0.001800 -1.000000 0.000100
vn 0.001500 -0.898100 0.439800
vn 0.001900 -1.000000 0.000300
vn 0.110500 -0.029800 0.993400
vn 0.000000 -0.081900 0.996600
vn 0.000900 0.283300 0.959000
vn 0.707100 -0.000000 0.707100
vn 0.316300 0.005400 0.948600
vn 0.995100 0.017600 0.097200
vn 0.993600 -0.018300 0.111300
vn 0.994100 0.008700 -0.108000
vn 0.875500 -0.483200 -0.002600
vn 0.499500 -0.866300 -0.001700
vn 0.992800 -0.008800 -0.119100
vn 0.867000 0.498400 -0.002700
vn 0.885700 0.464200 -0.000800
vn 0.484900 -0.874600 -0.001700
vn 0.233600 -0.972300 -0.005000
vn 0.945400 0.000000 -0.325900
vn 0.955100 0.000200 -0.296400
vn 0.325900 0.000000 -0.945400
vn 0.316200 0.000100 -0.948700
vn 0.106200 0.014200 -0.994200
vn 0.110000 -0.007000 -0.993900
vn -0.104900 0.020800 -0.994300
vn 0.003900 -0.379400 -0.925200
vn -0.104700 -0.021600 -0.994300
vn -0.703500 0.000000 -0.710700
vn 0.002100 -0.297100 -0.954800
vn 0.004100 -0.894900 -0.446200
vn 0.007900 -0.928400 -0.371600
vn -0.993800 0.008800 -0.110600
vn -0.993800 -0.009300 -0.110700
vn 0.006000 -1.000000 -0.005900
vn 0.002000 -1.000000 0.002400
vn -0.994200 0.000000 0.107100
vn -0.852500 -0.522800 0.001900
vn -0.877200 -0.480100 0.001100
vn -0.501600 -0.865100 0.001700
vn -0.408200 -0.912900 0.003300
vn -0.994100 -0.011900 0.107500
vn -0.948700 0.000000 0.316200
vn -0.859500 0.511200 0.002000
vn -0.873500 0.486800 0.001100
vn -0.077600 0.994100 0.075400
vn -0.114500 0.992700 0.038200
vn -0.076800 0.994100 0.076200
vn -0.039200 0.992800 0.113600
vn 0.000000 1.000000 -0.000000
vn -0.000600 0.002800 -1.000000
vn -0.000900 0.002700 -1.000000
vn -0.006900 -0.063900 -0.997900
vn 1.000000 0.002600 -0.000800
vn 1.000000 0.002900 -0.001200
vn 1.000000 0.002700 -0.000900
vn 0.998500 -0.003600 0.055400
vn 0.984700 0.002000 0.174500
vn 0.989900 -0.006100 0.141400
vn -0.077700 -0.994000 0.077700
vn -0.043400 -0.992800 0.111700
vn -0.111700 -0.992800 0.043400
vn -0.022000 -0.999500 -0.022500
vn 0.000000 -1.000000 0.000000
vn -0.021900 -0.999500 -0.022500
vn -0.037600 -0.998600 -0.038500
vn 0.074900 -0.993500 -0.085200
vn 0.042700 -0.990800 -0.128100
vn 0.081900 -0.993800 -0.075800
vn 0.112100 -0.993100 -0.034800
vn 0.049900 -0.997700 0.046200
vn 0.075300 -0.996900 0.022600
vn 0.048200 -0.997700 0.047800
vn 0.023500 -0.997200 0.070600
vn -0.014200 -0.042700 -0.999000
vn -0.014200 -0.042600 -0.999000
vn -0.014100 -0.049700 -0.998700
vn -0.014100 -0.049800 -0.998700
vn 0.998200 0.022700 0.055000
vn 1.000000 -0.000000 -0.000600
vn 1.000000 0.000300 -0.000500
vn 0.997800 0.029300 0.058900
vn 0.989900 0.009500 0.141600
vn 0.980600 -0.000000 0.196100
vn 0.991000 0.003400 0.133700
vn -1.000000 0.001200 0.000600
vn -1.000000 0.000000 0.000600
vn -0.998700 0.047600 -0.020100
vn -0.999900 0.004100 -0.010900
vn -0.998300 0.006000 -0.057600
vn -0.994200 -0.103600 0.029400
vn -0.973500 -0.189100 0.128500
vn 0.048600 -0.063200 0.996800
vn 0.003700 -0.108600 0.994100
vn 0.035100 -0.077000 0.996400
vn 0.089500 -0.021600 0.995800
vn 0.064400 -0.517700 -0.853100
vn 0.248900 -0.635900 -0.730500
vn 0.070100 -0.521800 -0.850200
vn -0.148300 -0.345400 -0.926700
vn 0.015000 -0.022100 0.999600
vn 0.015400 -0.046500 0.998800
vn 0.015400 -0.046300 0.998800
vn 0.015000 -0.021900 0.999600
vn 0.998100 0.061700 -0.001900
vn 0.998200 0.060800 -0.001800
vn 0.996000 0.078400 0.042700
vn 0.997300 0.066300 0.032300
vn 0.997800 -0.065700 0.000100
vn 0.999600 0.020100 0.018800
vn 0.953000 -0.273800 -0.129500
vn -0.987400 0.146500 0.059300
vn -0.996700 -0.080700 -0.002700
vn -0.997100 -0.076200 -0.002800
vn -0.993200 0.097500 0.063300
vn -0.981700 0.088600 0.168500
vn -0.996800 -0.071100 -0.037100
vn -0.972500 -0.157000 -0.171800
vn -0.075500 -0.063500 -0.995100
vn -0.036000 -0.100900 -0.994200
vn -0.065100 -0.073400 -0.995200
vn -0.117600 -0.023100 -0.992800
vn -0.038600 -0.130000 0.990800
vn -0.130000 -0.206500 0.969800
vn -0.031500 -0.124000 0.991800
vn 0.076400 -0.031600 0.996600
vn -0.001100 1.000000 -0.001200
vn -0.001600 -0.047700 0.998900
vn 0.004900 0.005800 1.000000
vn 0.003500 0.004700 1.000000
vn 0.025900 -0.280900 0.959400
vn 0.000200 -0.043600 -0.999100
vn -1.000000 0.003200 0.003400
vn -1.000000 0.005300 0.000600
vn -1.000000 0.002300 0.004500
vn -1.000000 0.000200 0.007300
vn 1.000000 0.002400 -0.000600
vn 0.997100 -0.010100 0.075700
vn 0.991000 -0.005700 0.133900
vn -0.007100 0.061400 0.998100
vn 0.058600 0.052100 0.996900
vn 0.035200 0.075500 0.996500
vn -0.015500 0.057500 -0.998200
vn -0.116800 0.024300 -0.992900
vn -0.064700 0.075300 -0.995100
vn 0.232100 0.972700 -0.002900
vn 0.208600 -0.977500 0.030000
vn 0.044600 -0.999000 -0.000000
vn -0.024300 0.105600 0.994100
vn -0.026400 0.050500 0.998400
vn 0.010300 0.121700 0.992500
vn -0.045700 0.524700 -0.850100
vn -0.165200 -0.985800 -0.029000
vn -0.035300 -0.999400 0.001200
vn -0.000100 0.117700 0.993000
vn 0.001800 0.672500 0.740100
vn 0.009000 0.915400 0.402400
vn 0.004100 0.389300 -0.921100
vn 0.002100 0.282900 -0.959100
vn 0.005900 0.876500 -0.481400
vn -0.998200 0.002200 -0.059200
vn -0.012700 -0.999600 -0.026300
vn -0.985800 -0.082500 0.146000
vn 0.997600 -0.054000 0.042200
vn -0.133000 0.991000 0.016900
vn -0.024300 -0.615300 0.787900
vn -0.006600 -0.098600 0.995100
vn 0.997100 0.076600 -0.003100
vn 0.028300 0.521000 -0.853100
vn 0.123000 0.673400 -0.729000
vn 0.045900 0.554100 -0.831200
vn -0.166600 0.350800 -0.921500
vn -0.997300 0.061000 -0.040700
vn -0.975000 0.146700 -0.167100
vn 0.968200 0.194900 -0.156700
vn 0.001700 0.999800 -0.017300
vn -0.230000 0.973200 0.002800
vn -0.107800 0.589100 -0.800800
vn 0.017400 0.114300 -0.993300
vn 0.013500 0.042300 -0.999000
vn -0.019200 0.136800 -0.990400
vn 0.036300 0.159700 0.986500
vn -0.993500 0.113400 0.010800
vn -0.978100 0.164100 0.128300
vn -0.038000 0.117600 0.992300
vn -0.096400 0.223100 0.970000
vn -0.067800 0.162600 0.984400
vn 0.049900 0.037400 0.998100
vn 0.012200 -0.173700 -0.984700
vn 0.000800 -0.088900 -0.996000
usemtl MrHandyBOX
s 1
f 2/1/1 3/2/2 1/3/3
f 2/1/1 4/4/4 5/5/5
f 5/5/5 6/6/6 2/1/1
f 3/2/2 2/1/1 6/6/6
f 6/6/6 7/7/7 3/2/2
f 11/1/8 10/8/9 12/4/10
f 14/7/11 13/2/12 11/1/8
f 15/9/13 11/1/8 12/4/10
f 11/1/8 15/9/13 14/7/11
f 12/4/10 16/5/14 15/9/13
f 5/10/15 19/11/16 20/12/17
f 20/12/17 6/13/18 5/10/15
f 6/13/18 20/12/17 21/14/19
f 21/14/19 7/15/20 6/13/18
f 3/16/21 7/17/22 21/18/23
f 21/18/23 22/19/24 3/16/21
f 1/20/25 3/16/21 22/19/24
f 22/19/24 18/21/26 1/20/25
f 22/2/27 21/7/28 20/6/29
f 20/6/29 23/1/30 22/2/27
f 18/3/31 22/2/27 23/1/30
f 23/1/30 20/6/29 19/5/32
f 19/5/32 24/4/33 23/1/30
f 19/18/34 5/17/34 4/16/34
f 4/16/34 24/19/34 19/18/34
f 25/12/35 26/11/36 14/10/36
f 14/10/36 15/13/37 25/12/35
f 27/14/38 25/12/35 15/13/37
f 15/13/37 16/15/39 27/14/38
f 27/18/40 16/17/40 12/16/40
f 12/16/40 28/19/41 27/18/40
f 28/19/41 12/16/40 10/20/42
f 10/20/42 17/21/43 28/19/41
f 25/9/44 27/5/45 28/4/46
f 28/4/46 29/1/47 25/9/44
f 26/7/48 25/9/44 29/1/47
f 17/8/49 29/1/47 28/4/46
f 17/8/49 8/3/50 29/1/47
f 29/1/47 8/3/50 30/2/51
f 29/1/47 30/2/51 26/7/48
f 13/16/52 14/17/34 26/18/34
f 26/18/34 30/19/53 13/16/52
f 13/16/52 30/19/53 8/21/54
f 31/22/55 32/23/56 33/24/57
f 33/24/57 34/25/58 31/22/55
f 35/22/59 36/23/60 37/24/61
f 37/24/61 38/25/62 35/22/59
f 39/11/63 40/14/64 34/15/65
f 34/15/65 33/10/66 39/11/63
f 39/26/67 42/22/68 41/23/69
f 41/23/69 40/27/70 39/26/67
f 31/16/71 34/17/72 40/18/73
f 40/18/73 41/19/74 31/16/71
f 39/18/75 33/17/76 32/16/77
f 32/16/77 42/19/78 39/18/75
f 43/11/79 44/14/80 38/15/81
f 38/15/81 37/10/82 43/11/79
f 43/26/83 46/22/84 45/23/85
f 45/23/85 44/27/86 43/26/83
f 35/16/87 38/17/88 44/18/89
f 44/18/89 45/19/90 35/16/87
f 43/18/91 37/17/92 36/16/93
f 36/16/93 46/19/94 43/18/91
f 50/28/95 51/29/95 52/30/96
f 52/30/97 53/31/98 50/28/99
f 53/31/98 52/30/97 54/32/100
f 55/33/101 54/32/100 52/30/97
f 52/30/97 56/34/102 55/33/101
f 55/33/101 56/34/102 57/35/103
f 57/35/103 58/36/104 55/33/101
f 59/37/105 58/36/106 57/35/107
f 57/35/107 60/38/108 59/37/105
f 54/32/100 61/39/109 53/31/98
f 53/31/98 61/39/109 62/40/110
f 62/40/110 63/41/111 53/31/98
f 64/42/112 61/39/109 54/32/100
f 54/32/100 65/43/113 64/42/112
f 64/42/112 65/43/113 67/44/114
f 67/44/114 68/45/115 64/42/112
f 68/45/115 67/44/114 69/46/116
f 70/47/117 69/46/116 67/44/114
f 67/44/114 71/48/118 70/47/117
f 69/46/116 72/49/119 68/45/115
f 68/45/115 72/49/119 73/50/120
f 73/50/120 74/51/121 68/45/115
f 70/47/117 71/48/118 75/52/122
f 75/52/122 76/53/123 70/47/117
f 77/54/124 72/49/119 69/46/116
f 69/46/116 78/55/125 77/54/124
f 77/28/126 78/29/127 79/30/128
f 79/30/128 80/31/129 77/28/126
f 80/31/129 79/30/128 81/32/130
f 81/32/130 79/30/128 82/34/131
f 81/32/130 83/39/132 80/31/129
f 85/42/133 83/39/132 81/32/130
f 81/32/130 87/43/133 85/42/133
f 82/34/131 88/33/134 81/32/130
f 89/36/135 88/33/134 82/34/131
f 82/34/131 90/35/136 89/36/135
f 85/42/133 87/43/133 91/44/137
f 91/44/137 92/45/138 85/42/133
f 89/36/135 90/35/136 93/38/139
f 93/38/139 94/37/140 89/36/135
f 92/45/138 91/44/137 95/46/141
f 96/47/142 95/46/141 91/44/137
f 91/44/137 97/48/143 96/47/142
f 96/47/142 97/48/143 98/52/144
f 98/52/144 99/53/145 96/47/142
f 95/46/141 100/49/146 92/45/138
f 50/54/147 100/49/146 95/46/141
f 95/46/141 51/55/147 50/54/147
f 92/45/138 100/49/146 101/50/148
f 101/50/148 102/51/149 92/45/138
f 103/56/150 100/57/151 50/58/152
f 50/58/152 53/59/153 103/56/150
f 83/57/154 85/58/154 92/59/154
f 104/56/154 72/57/154 77/58/154
f 77/58/154 80/59/154 104/56/154
f 107/60/155 108/61/156 103/62/157
f 103/63/158 108/61/159 105/60/160
f 66/20/161 62/64/162 61/65/163
f 109/56/164 52/59/165 51/58/164
f 51/58/164 95/57/166 109/56/164
f 91/59/167 87/58/168 81/57/169
f 81/57/169 110/56/170 91/59/167
f 111/56/171 79/59/172 78/58/173
f 78/58/173 69/57/174 111/56/171
f 112/56/175 67/59/176 65/58/177
f 65/58/177 54/57/178 112/56/175
f 113/11/179 59/10/180 60/15/181
f 60/15/181 114/14/182 113/11/179
f 58/20/183 59/17/184 113/18/185
f 113/18/185 75/21/186 58/20/183
f 58/20/183 75/21/186 54/65/187
f 54/65/187 55/64/188 58/20/183
f 75/21/186 112/66/189 54/65/187
f 114/18/190 60/17/191 57/20/192
f 57/20/192 99/21/193 114/18/190
f 99/21/193 57/20/192 56/64/194
f 56/64/194 52/65/195 99/21/193
f 99/21/193 52/65/195 109/66/196
f 112/21/197 75/20/198 71/64/199
f 71/64/199 67/65/200 112/21/197
f 76/20/201 111/21/202 69/65/203
f 69/65/203 70/64/204 76/20/201
f 115/11/205 116/14/206 94/15/207
f 94/15/207 93/10/208 115/11/205
f 115/18/209 93/17/210 90/20/211
f 90/20/211 76/21/212 115/18/209
f 79/65/213 76/21/212 90/20/211
f 90/20/211 82/64/214 79/65/213
f 76/21/212 79/65/213 111/66/215
f 89/20/216 94/17/217 116/18/218
f 116/18/218 98/21/219 89/20/216
f 88/64/220 89/20/216 98/21/219
f 98/21/219 81/65/221 88/64/220
f 98/21/219 110/66/222 81/65/221
f 110/21/223 98/20/224 97/64/225
f 97/64/225 91/65/226 110/21/223
f 99/20/227 109/21/228 95/65/229
f 95/65/229 96/64/230 99/20/227
f 106/61/154 105/63/154 108/67/154
f 108/67/231 107/60/231 106/61/231
f 92/59/154 48/56/154 83/57/154
f 49/56/154 61/57/154 64/58/154
f 64/58/154 68/59/154 49/56/154
f 48/62/232 105/61/233 106/60/234
f 106/60/234 104/68/235 48/62/232
f 103/62/157 49/68/236 107/60/155
f 49/63/237 104/67/238 106/60/239
f 106/60/239 107/61/240 49/63/237
f 105/60/160 48/67/241 103/63/158
f 61/65/163 47/21/242 66/20/161
f 47/21/242 61/65/163 49/66/243
f 49/21/244 68/65/245 74/64/246
f 48/21/247 92/65/248 102/64/249
f 47/26/250 74/51/121 73/50/120
f 104/25/251 49/24/252 41/23/69
f 41/23/69 42/22/68 104/25/251
f 47/20/253 31/16/71 41/19/74
f 41/19/74 49/21/254 47/20/253
f 74/64/246 47/20/255 49/21/244
f 104/21/256 42/19/78 32/16/77
f 103/25/257 48/24/258 45/23/85
f 45/23/85 46/22/84 103/25/257
f 103/21/259 46/19/94 36/16/93
f 1/3/3 63/41/111 62/40/110
f 62/40/260 66/8/261 1/3/3
f 66/8/261 2/1/1 1/3/3
f 66/8/261 4/4/4 2/1/1
f 9/41/262 84/40/263 10/8/9
f 10/8/9 86/3/264 9/41/262
f 86/3/264 10/8/9 11/1/8
f 86/3/264 11/1/8 13/2/12
f 63/64/265 1/20/25 18/21/26
f 18/3/31 23/1/30 47/8/266
f 23/1/30 24/4/33 47/8/266
f 47/21/242 24/19/34 4/16/34
f 4/16/34 66/20/161 47/21/242
f 17/21/43 10/20/42 84/64/267
f 8/21/54 86/20/268 13/16/52
f 18/27/269 36/23/60 35/22/59
f 8/67/270 17/63/271 48/62/232
f 9/41/262 80/31/129 83/39/132
f 83/39/132 84/40/263 9/41/262
f 80/65/272 9/64/34 86/20/268
f 48/62/232 104/68/235 8/67/270
f 72/65/273 104/21/274 8/20/275
f 8/20/275 73/64/276 72/65/273
f 84/64/267 83/65/277 17/21/43
f 17/21/43 83/65/277 48/66/278
f 86/20/268 8/21/54 80/65/272
f 8/21/54 104/66/279 80/65/272
f 73/50/120 8/27/280 47/26/250
f 31/22/55 47/26/250 8/27/280
f 8/27/280 32/23/56 31/22/55
f 17/26/281 102/51/149 101/50/148
f 101/50/148 18/27/269 17/26/281
f 35/22/59 17/26/281 18/27/269
f 32/16/77 8/20/282 104/21/256
f 17/20/283 35/16/87 45/19/90
f 45/19/90 48/21/284 17/20/283
f 102/64/249 17/20/285 48/21/247
f 36/16/93 18/20/286 103/21/259
f 18/21/26 53/65/287 63/64/265
f 18/21/26 103/66/288 53/65/287
f 100/65/289 103/21/290 18/20/291
f 18/20/291 101/64/292 100/65/289
f 49/68/236 103/62/157 18/63/293
f 18/63/293 47/67/294 49/68/236
